<svg width="36" height="36" viewBox="0 0 48 48"  fill="none" xmlns="http://www.w3.org/2000/svg">
<path d="M8.80614 34.9463C8.41834 34.9463 8.08743 34.8092 7.81339 34.535C7.53936 34.2609 7.40234 33.9298 7.40234 33.5418C7.40234 33.1602 7.53936 32.8326 7.81339 32.5588C8.08743 32.2851 8.41834 32.1483 8.80614 32.1483H39.2003C39.5817 32.1483 39.9095 32.2854 40.1835 32.5595C40.4575 32.8337 40.5945 33.1616 40.5945 33.5431C40.5945 33.9311 40.4575 34.262 40.1835 34.5357C39.9095 34.8094 39.5817 34.9463 39.2003 34.9463H8.80614ZM8.80614 25.379C8.41834 25.379 8.08743 25.2419 7.81339 24.9677C7.53936 24.6936 7.40234 24.3625 7.40234 23.9745C7.40234 23.5929 7.53936 23.2653 7.81339 22.9915C8.08743 22.7178 8.41834 22.581 8.80614 22.581H39.2003C39.5817 22.581 39.9095 22.7181 40.1835 22.9922C40.4575 23.2664 40.5945 23.5943 40.5945 23.9758C40.5945 24.3639 40.4575 24.6947 40.1835 24.9684C39.9095 25.2421 39.5817 25.379 39.2003 25.379H8.80614ZM8.80614 15.8117C8.41834 15.8117 8.08743 15.6746 7.81339 15.4004C7.53936 15.1263 7.40234 14.7952 7.40234 14.4072C7.40234 14.0256 7.53936 13.698 7.81339 13.4243C8.08743 13.1505 8.41834 13.0137 8.80614 13.0137H39.2003C39.5817 13.0137 39.9095 13.1508 40.1835 13.4249C40.4575 13.6991 40.5945 14.027 40.5945 14.4086C40.5945 14.7966 40.4575 15.1274 40.1835 15.4011C39.9095 15.6748 39.5817 15.8117 39.2003 15.8117H8.80614Z" fill="none"/>
</svg>
